<svg xmlns="http://www.w3.org/2000/svg"  viewBox="0 0 100 100" width="100px" height="100px"><circle cx="78" cy="14" r="1" fill="#f1bc19"/><circle cx="50" cy="50" r="38" fill="#f9dbd2"/><circle cx="84" cy="16" r="4" fill="#f1bc19"/><circle cx="14" cy="26" r="2" fill="#ee3e54"/><circle cx="78" cy="77" r="2" fill="#fbcd59"/><circle cx="17" cy="78" r="4" fill="#fbcd59"/><circle cx="24" cy="83" r="2" fill="#ee3e54"/><circle cx="66.483" cy="78.517" r="2.483" fill="#fff"/><circle cx="16" cy="48" r="1" fill="#fff"/><circle cx="86" cy="31" r="1" fill="#f1bc19"/><circle cx="80" cy="66" r="2" fill="#fff"/><path fill="#fbcd59" d="M28.005,65.001l-0.004-30c0-3.866,3.134-7.001,7-7.001H65c3.866,0,7,3.134,7,7v30 c0,3.866-3.134,7-7,7H35.005C31.139,72,28.005,68.867,28.005,65.001z"/><path fill="#472b29" d="M65,28.4c3.639,0,6.6,2.961,6.6,6.6v30c0,3.639-2.961,6.6-6.6,6.6H35c-3.639,0-6.6-2.961-6.6-6.6V35 c0-3.639,2.961-6.6,6.6-6.6H65 M65,27H35c-4.418,0-8,3.582-8,8v30c0,4.418,3.582,8,8,8h30c4.418,0,8-3.582,8-8V35 C73,30.582,69.418,27,65,27L65,27z"/><path fill="#472b29" d="M46.5,31h-2c-0.276,0-0.5-0.224-0.5-0.5s0.224-0.5,0.5-0.5h2c0.276,0,0.5,0.224,0.5,0.5 S46.776,31,46.5,31z"/><path fill="#472b29" d="M64.5,70h-29c-3.032,0-5.5-2.467-5.5-5.5v-29c0-3.033,2.468-5.5,5.5-5.5h6 c0.276,0,0.5,0.224,0.5,0.5S41.776,31,41.5,31h-6c-2.481,0-4.5,2.019-4.5,4.5v29c0,2.481,2.019,4.5,4.5,4.5h29 c2.481,0,4.5-2.019,4.5-4.5v-5c0-0.276,0.224-0.5,0.5-0.5s0.5,0.224,0.5,0.5v5C70,67.533,67.532,70,64.5,70z"/><path fill="#472b29" d="M69.5,58c-0.276,0-0.5-0.224-0.5-0.5v-5c0-0.276,0.224-0.5,0.5-0.5s0.5,0.224,0.5,0.5v5 C70,57.776,69.776,58,69.5,58z"/><path fill="#472b29" d="M69.5,49c-0.276,0-0.5-0.224-0.5-0.5v-13c0-2.481-2.019-4.5-4.5-4.5h-12c-0.276,0-0.5-0.224-0.5-0.5 s0.224-0.5,0.5-0.5h12c3.032,0,5.5,2.467,5.5,5.5v13C70,48.776,69.776,49,69.5,49z"/><path fill="#836f61" d="M50,50.5c0,2.305-1.834,4.174-4.096,4.174s-4.096-1.869-4.096-4.174s1.834-4.174,4.096-4.174 S50,48.195,50,50.5z M45.904,48.196c-1.131,0-2.048,1.032-2.048,2.304s0.917,2.304,2.048,2.304c1.131,0,2.048-1.032,2.048-2.304 S47.035,48.196,45.904,48.196z"/><path fill="#472b29" d="M45.904,54.924c-2.396,0-4.346-1.984-4.346-4.424s1.949-4.424,4.346-4.424s4.346,1.984,4.346,4.424 S48.301,54.924,45.904,54.924z M45.904,46.576c-2.12,0-3.846,1.76-3.846,3.924s1.726,3.924,3.846,3.924s3.846-1.76,3.846-3.924 S48.024,46.576,45.904,46.576z M45.904,53.054c-1.267,0-2.298-1.146-2.298-2.554s1.031-2.554,2.298-2.554s2.298,1.146,2.298,2.554 S47.171,53.054,45.904,53.054z M45.904,48.446c-0.991,0-1.798,0.921-1.798,2.054s0.807,2.054,1.798,2.054s1.798-0.921,1.798-2.054 S46.896,48.446,45.904,48.446z"/><path fill="#836f61" d="M65.7,50.5c0,2.305-1.834,4.174-4.096,4.174s-4.096-1.869-4.096-4.174s1.834-4.174,4.096-4.174 S65.7,48.195,65.7,50.5z M61.604,48.196c-1.131,0-2.048,1.032-2.048,2.304s0.917,2.304,2.048,2.304 c1.131,0,2.048-1.032,2.048-2.304S62.735,48.196,61.604,48.196z"/><path fill="#472b29" d="M61.604,54.924c-2.396,0-4.346-1.984-4.346-4.424s1.949-4.424,4.346-4.424s4.346,1.984,4.346,4.424 S64.001,54.924,61.604,54.924z M61.604,46.576c-2.12,0-3.846,1.76-3.846,3.924s1.726,3.924,3.846,3.924s3.846-1.76,3.846-3.924 S63.725,46.576,61.604,46.576z M61.604,53.054c-1.267,0-2.298-1.146-2.298-2.554s1.031-2.554,2.298-2.554s2.298,1.146,2.298,2.554 S62.871,53.054,61.604,53.054z M61.604,48.446c-0.991,0-1.798,0.921-1.798,2.054s0.807,2.054,1.798,2.054s1.798-0.921,1.798-2.054 S62.596,48.446,61.604,48.446z"/><polygon fill="#836f61" points="53.413,52.587 53.413,46.326 51.365,46.326 51.365,54.674 52.73,54.674 53.413,54.674 56.826,54.674 56.826,52.587"/><path fill="#472b29" d="M56.826,54.924h-5.461c-0.138,0-0.25-0.112-0.25-0.25v-8.348c0-0.138,0.112-0.25,0.25-0.25h2.048 c0.138,0,0.25,0.112,0.25,0.25v6.011h3.163c0.138,0,0.25,0.112,0.25,0.25v2.087C57.076,54.812,56.964,54.924,56.826,54.924z M51.615,54.424h4.961v-1.587h-3.163c-0.138,0-0.25-0.112-0.25-0.25v-6.011h-1.548V54.424z"/><polygon fill="#836f61" points="41.809,46.326 39.078,51.196 39.078,54.674 37.03,54.674 37.03,51.196 34.3,46.326 36.348,46.326 38.054,49.109 39.761,46.326"/><path fill="#472b29" d="M39.078,54.924H37.03c-0.138,0-0.25-0.112-0.25-0.25v-3.413l-2.698-4.813 c-0.044-0.077-0.043-0.172,0.002-0.249s0.127-0.124,0.216-0.124h2.048c0.087,0,0.168,0.045,0.213,0.119l1.494,2.436l1.493-2.436 c0.045-0.074,0.126-0.119,0.213-0.119h2.048c0.089,0,0.171,0.047,0.216,0.124s0.046,0.171,0.002,0.249l-2.698,4.813v3.413 C39.328,54.812,39.216,54.924,39.078,54.924z M37.28,54.424h1.548v-3.228c0-0.043,0.011-0.085,0.032-0.122l2.521-4.498H39.9 l-1.633,2.664c-0.09,0.147-0.336,0.148-0.426,0l-1.634-2.664h-1.481l2.521,4.498c0.021,0.037,0.032,0.079,0.032,0.122V54.424z"/></svg>